<svg width="124" height="48" viewBox="0 0 124 48" fill="none" xmlns="http://www.w3.org/2000/svg">
<path d="M15.2602 16.2655C14.1858 17.3318 14.1858 19.0634 15.2602 20.1327L23.054 27.8672C24.1285 28.9335 24.1285 30.6651 23.054 31.7344L11.3664 43.333C10.2919 44.3993 10.2919 46.1309 11.3664 47.2003C12.4409 48.2666 14.1858 48.2666 15.2633 47.2003L28.9285 33.6392C31.0652 31.5187 31.0652 28.0829 28.9285 25.9624L19.1541 16.2655C18.0796 15.1962 16.3347 15.1962 15.2602 16.2655Z" fill="#00063A"/>
<path d="M15.2608 31.7314C16.3353 30.6652 16.3353 28.9336 15.2608 27.8642L7.46702 20.1328C6.39254 19.0665 6.39254 17.3349 7.46702 16.2656L19.1547 4.66695C20.2291 3.60065 20.2291 1.86906 19.1547 0.799723C18.0802 -0.266574 16.3353 -0.266574 15.2578 0.799723L1.60483 14.3517C-0.534944 16.4752 -0.534944 19.9232 1.60483 22.0467L11.3639 31.7314C12.4384 32.7977 14.1833 32.7977 15.2608 31.7314Z" fill="#00063A"/>
<path d="M5.5207 40.2648C7.04229 40.2648 8.27577 39.0407 8.27577 37.5307C8.27577 36.0207 7.04229 34.7966 5.5207 34.7966C3.99911 34.7966 2.76562 36.0207 2.76562 37.5307C2.76562 39.0407 3.99911 40.2648 5.5207 40.2648Z" fill="#00063A"/>
<path d="M41.9013 12.7537H38.9197L38.2554 14.8924H36.1523L39.4646 5.65115H41.3931L44.6778 14.8924H42.5747L41.9013 12.7537ZM41.3962 11.1831L40.438 8.19994H40.3584L39.4278 11.1831H41.3962Z" fill="#00063A"/>
<path d="M46.7499 14.5765C46.205 14.2879 45.7917 13.9051 45.5131 13.4342C45.2346 12.9634 45.0938 12.4743 45.0938 11.9609V11.8545H47.3682V11.9457C47.3682 12.2616 47.4815 12.5533 47.7141 12.8175C47.9437 13.0818 48.2804 13.2125 48.7243 13.2125C49.107 13.2125 49.4131 13.1153 49.6427 12.9208C49.8723 12.7264 49.9886 12.4712 49.9886 12.1553C49.9886 11.8728 49.8876 11.648 49.6825 11.4748C49.4804 11.3047 49.2294 11.1862 48.9386 11.1254L47.8733 10.9128C47.2519 10.7731 46.6703 10.5088 46.1315 10.1199C45.5897 9.73106 45.3203 9.09918 45.3203 8.21819C45.3203 7.64707 45.4611 7.1519 45.7397 6.73874C46.0182 6.32559 46.407 6.00661 46.9029 5.78789C47.3988 5.56916 47.9621 5.45676 48.5927 5.45676C49.309 5.45676 49.9304 5.59346 50.4539 5.86687C50.9774 6.14028 51.3723 6.49268 51.6386 6.93013C51.9049 7.36455 52.0365 7.82023 52.0365 8.29718V8.36401H49.7621V8.32452C49.7621 8.042 49.661 7.78074 49.4621 7.53771C49.2631 7.29468 48.9447 7.1762 48.51 7.1762C48.1733 7.1762 47.9039 7.26734 47.7049 7.45265C47.506 7.63796 47.4049 7.88099 47.4049 8.1787C47.4049 8.47034 47.5152 8.69818 47.7386 8.86526C47.9621 9.03235 48.2284 9.14779 48.5376 9.20854L49.6151 9.4455C50.3161 9.59435 50.9131 9.87688 51.4121 10.29C51.908 10.7032 52.1559 11.3077 52.1559 12.0976C52.1559 12.6778 52.0029 13.1882 51.7029 13.6287C51.3998 14.0692 50.9865 14.4064 50.46 14.6464C49.9335 14.8833 49.3396 15.0018 48.6845 15.0018C47.9407 15.0109 47.2947 14.8651 46.7499 14.5765Z" fill="#00063A"/>
<path d="M53.4883 5.65115H55.576V14.8924H53.4883V5.65115Z" fill="#00063A"/>
<path d="M62.3661 12.7537H59.3845L58.7202 14.8924H56.6172L59.9294 5.65115H61.8579L65.1426 14.8924H63.0396L62.3661 12.7537ZM61.8579 11.1831L60.8998 8.19994H60.8202L59.8896 11.1831H61.8579Z" fill="#00063A"/>
<path d="M36.6046 19.7863H40.275C41.1015 19.7863 41.827 19.9686 42.4576 20.3332C43.0852 20.6977 43.578 21.2263 43.927 21.9189C44.276 22.6085 44.4535 23.4348 44.4535 24.3948C44.4535 25.373 44.276 26.2084 43.9209 26.9041C43.5658 27.5998 43.0729 28.1284 42.4362 28.4899C41.8025 28.8514 41.074 29.0306 40.2474 29.0306H36.6016V19.7863H36.6046ZM39.8648 27.1775C40.5903 27.1775 41.1689 26.9709 41.5944 26.5578C42.0199 26.1446 42.2342 25.4216 42.2342 24.3918C42.2342 23.3619 42.0229 22.6389 41.6005 22.2258C41.178 21.8126 40.5995 21.606 39.8648 21.606H38.6128V27.1775H39.8648Z" fill="#00063A"/>
<path d="M45.7051 19.7984H47.7928V29.0397H45.7051V19.7984Z" fill="#00063A"/>
<path d="M51.0604 28.7238C50.5155 28.4352 50.1023 28.0524 49.8237 27.5815C49.5451 27.1107 49.4043 26.6185 49.4043 26.1082V26.0018H51.6788V26.093C51.6788 26.4089 51.792 26.7005 52.0247 26.9648C52.2543 27.2291 52.591 27.3598 53.0349 27.3598C53.4175 27.3598 53.7236 27.2626 53.9532 27.0712C54.1828 26.8767 54.2992 26.6216 54.2992 26.3056C54.2992 26.0231 54.1981 25.7983 53.993 25.6251C53.791 25.452 53.54 25.3365 53.2492 25.2758L52.1839 25.0631C51.5624 24.9234 50.9808 24.6591 50.442 24.2702C49.9002 23.8844 49.6308 23.2495 49.6308 22.3685C49.6308 21.7944 49.7716 21.3022 50.0502 20.8891C50.3288 20.4759 50.7176 20.1569 51.2135 19.9382C51.7094 19.7164 52.2726 19.6071 52.9032 19.6071C53.6196 19.6071 54.241 19.7438 54.7645 20.0172C55.2879 20.2906 55.6828 20.646 55.9491 21.0805C56.2155 21.5179 56.3471 21.9736 56.3471 22.4475V22.5143H54.0726V22.4779C54.0726 22.1954 53.9716 21.9341 53.7726 21.6911C53.5736 21.448 53.2553 21.3265 52.8206 21.3265C52.4839 21.3265 52.2145 21.4177 52.0155 21.603C51.8165 21.7883 51.7155 22.0283 51.7155 22.329C51.7155 22.6176 51.8257 22.8485 52.0492 23.0156C52.2726 23.1827 52.539 23.2981 52.8481 23.3589L53.9257 23.5958C54.6267 23.7477 55.2236 24.0272 55.7226 24.4404C56.2185 24.8535 56.4665 25.4581 56.4665 26.2479C56.4665 26.8281 56.3134 27.3385 56.0134 27.779C55.7104 28.2195 55.2971 28.5567 54.7706 28.7967C54.244 29.0336 53.6502 29.1521 52.9951 29.1521C52.2512 29.1612 51.6053 29.0154 51.0604 28.7238Z" fill="#00063A"/>
<path d="M64.2776 21.5938H61.8286V29.0397H59.7654V21.5938H57.3164V19.7984H64.2745V21.5938H64.2776Z" fill="#00063A"/>
<path d="M68.5627 25.8043H67.4851V29.0397H65.4219V19.7984H68.9606C69.6953 19.7984 70.3198 19.9412 70.8279 20.2207C71.3361 20.5002 71.7157 20.8738 71.9667 21.3356C72.2147 21.7974 72.3402 22.2986 72.3402 22.8333C72.3402 23.4317 72.1871 23.9725 71.8871 24.4494C71.5841 24.9294 71.1432 25.2879 70.5555 25.5248L72.5514 29.0366H70.3841L68.5627 25.8043ZM67.4851 24.1305H68.63C69.1106 24.1305 69.5116 24.0302 69.8422 23.8327C70.1698 23.6353 70.3351 23.3041 70.3351 22.8363C70.3351 22.3867 70.1728 22.0677 69.8514 21.8794C69.5269 21.691 69.1229 21.5969 68.6331 21.5969H67.4882V24.1305H67.4851Z" fill="#00063A"/>
<path d="M73.7656 19.7984H75.8534V29.0397H73.7656V19.7984Z" fill="#00063A"/>
<path d="M77.4629 19.7984H81.4547C82.0241 19.7984 82.5047 19.9048 82.9057 20.1144C83.3036 20.327 83.6006 20.6095 83.7965 20.965C83.9924 21.3204 84.0873 21.7153 84.0873 22.1467C84.0873 22.6662 83.9557 23.0915 83.6894 23.4196C83.423 23.7507 83.1108 23.9634 82.7587 24.0606V24.1517C83.0251 24.1882 83.3006 24.2884 83.5914 24.4555C83.8791 24.6226 84.124 24.8656 84.3291 25.1876C84.5312 25.5097 84.6353 25.8985 84.6353 26.3572C84.6353 26.7977 84.5342 27.223 84.3353 27.6362C84.1363 28.0524 83.8179 28.3896 83.3832 28.6539C82.9485 28.9182 82.4067 29.0488 81.7608 29.0488H77.4629V19.7984ZM80.8302 23.5624C81.1945 23.5624 81.5037 23.4803 81.7608 23.3133C82.0179 23.1462 82.1465 22.8697 82.1465 22.4809C82.1465 22.1011 82.0149 21.8308 81.7547 21.6698C81.4914 21.5088 81.1853 21.4267 80.8302 21.4267H79.4986V23.5654H80.8302V23.5624ZM81.2955 27.4174C81.6598 27.4174 81.9781 27.3293 82.2537 27.1531C82.5261 26.977 82.6669 26.6671 82.6669 26.2296C82.6669 25.7983 82.5261 25.4914 82.2475 25.3031C81.9659 25.1178 81.6506 25.0266 81.2955 25.0266H79.4986V27.4174H81.2955Z" fill="#00063A"/>
<path d="M86.8473 28.1769C86.1249 27.5116 85.7637 26.4544 85.7637 25.0023V19.7984H87.8269V24.8565C87.8269 26.4241 88.43 27.2078 89.6361 27.2078C90.2851 27.2078 90.7442 26.9921 91.0197 26.5608C91.2953 26.1294 91.433 25.5613 91.433 24.8565V19.7984H93.4932V25.0023C93.4932 26.4544 93.132 27.5147 92.4095 28.1769C91.6871 28.8422 90.7626 29.1733 89.6361 29.1733C88.5004 29.1733 87.5698 28.8422 86.8473 28.1769Z" fill="#00063A"/>
<path d="M101.61 21.5938H99.1606V29.0397H97.0974V21.5938H94.6484V19.7984H101.607V21.5938H101.61Z" fill="#00063A"/>
<path d="M102.85 19.7984H104.937V29.0397H102.85V19.7984Z" fill="#00063A"/>
<path d="M108.169 28.5202C107.52 28.0918 107.037 27.5207 106.712 26.8038C106.388 26.0868 106.229 25.2909 106.229 24.4221C106.229 23.5502 106.391 22.7512 106.721 22.0191C107.052 21.287 107.539 20.7037 108.185 20.2693C108.834 19.8318 109.617 19.6161 110.539 19.6161C111.445 19.6161 112.216 19.8318 112.859 20.2632C113.502 20.6946 113.986 21.2778 114.31 22.013C114.635 22.7482 114.794 23.5563 114.794 24.4342C114.794 25.3152 114.631 26.1142 114.31 26.8311C113.986 27.548 113.502 28.1161 112.859 28.5353C112.216 28.9546 111.442 29.1642 110.539 29.1642C109.605 29.1612 108.815 28.9455 108.169 28.5202ZM112.048 26.4909C112.406 25.9349 112.587 25.2423 112.587 24.4038C112.587 23.5775 112.409 22.8758 112.054 22.3046C111.699 21.7335 111.188 21.4449 110.523 21.4449C110.07 21.4449 109.688 21.5816 109.372 21.855C109.057 22.1284 108.821 22.49 108.668 22.9396C108.512 23.3892 108.436 23.8752 108.436 24.4038C108.436 25.2241 108.616 25.9137 108.974 26.4757C109.333 27.0377 109.85 27.3202 110.523 27.3202C111.182 27.3263 111.687 27.0468 112.048 26.4909Z" fill="#00063A"/>
<path d="M116.033 19.7984H118.442L121.849 25.8863H121.889V19.7984H123.937V29.0549H121.504L118.124 23.1917H118.084V29.0549H116.036V19.7984H116.033Z" fill="#00063A"/>
<path d="M42.0146 33.7242C42.5258 34.025 42.9023 34.4199 43.1534 34.912C43.4013 35.4042 43.5268 35.9388 43.5268 36.5099C43.5268 37.0719 43.4044 37.5945 43.1595 38.0744C42.9146 38.5544 42.5381 38.9402 42.0268 39.2288C41.5156 39.5205 40.8911 39.6663 40.1442 39.6663H38.6412V42.5189H36.6055V33.2776H40.1442C40.882 33.2746 41.5034 33.4265 42.0146 33.7242ZM41.0228 37.64C41.3503 37.4152 41.5156 37.0385 41.5156 36.5099C41.5156 35.9813 41.3534 35.6107 41.032 35.4011C40.7075 35.1885 40.3034 35.0852 39.8136 35.0852H38.6442V37.9772H39.8136C40.2911 37.9742 40.6952 37.8618 41.0228 37.64Z" fill="#00063A"/>
<path d="M49.1415 40.3773H46.1599L45.4956 42.516H43.3926L46.7048 33.2747H48.6333L51.918 42.516H49.815L49.1415 40.3773ZM48.6333 38.8067L47.6752 35.8235H47.5956L46.665 38.8067H48.6333Z" fill="#00063A"/>
<path d="M55.9377 39.2835H54.8601V42.5188H52.7969V33.2776H56.3356C57.0703 33.2776 57.6948 33.4204 58.2029 33.6999C58.7111 33.9793 59.0907 34.353 59.3417 34.8148C59.5897 35.2765 59.7152 35.7778 59.7152 36.3124C59.7152 36.9109 59.5621 37.4516 59.2621 37.9286C58.9591 38.4086 58.5182 38.767 57.9305 39.004L59.9264 42.5158H57.7591L55.9377 39.2835ZM54.8601 37.6066H56.005C56.4856 37.6066 56.8866 37.5063 57.2172 37.3089C57.5448 37.1114 57.7101 36.7803 57.7101 36.3124C57.7101 35.8628 57.5478 35.5438 57.2264 35.3555C56.9019 35.1672 56.4979 35.073 56.0081 35.073H54.8632V37.6066H54.8601Z" fill="#00063A"/>
<path d="M67.6174 35.0701H65.1684V42.516H63.1052V35.0701H60.6562V33.2747H67.6143V35.0701H67.6174Z" fill="#00063A"/>
<path d="M68.7637 33.2747H71.1728L74.5799 39.3626H74.6197V33.2747H76.6677V42.5311H74.234L70.8545 36.668H70.8147V42.5311H68.7667V33.2747H68.7637Z" fill="#00063A"/>
<path d="M80.2588 35.0701V37.0356H83.7975V38.6335H80.2588V40.7206H84.4618V42.516H78.168V33.2747H84.4618V35.0701H80.2588Z" fill="#00063A"/>
<path d="M88.8381 39.2835H87.7605V42.5188H85.6973V33.2776H89.236C89.9707 33.2776 90.5952 33.4204 91.1033 33.6999C91.6115 33.9793 91.9911 34.353 92.2421 34.8148C92.4901 35.2765 92.6156 35.7778 92.6156 36.3124C92.6156 36.9109 92.4625 37.4516 92.1625 37.9286C91.8595 38.4086 91.4186 38.767 90.8309 39.004L92.8268 42.5158H90.6595L88.8381 39.2835ZM87.7605 37.6066H88.9023C89.3829 37.6066 89.784 37.5063 90.1146 37.3089C90.4421 37.1114 90.6074 36.7803 90.6074 36.3124C90.6074 35.8628 90.4452 35.5438 90.1238 35.3555C89.7993 35.1672 89.3952 35.073 88.9054 35.073H87.7636V37.6066H87.7605Z" fill="#00063A"/>
<path d="M25.0012 13.2003C26.5228 13.2003 27.7562 11.9762 27.7562 10.4662C27.7562 8.95621 26.5228 7.73212 25.0012 7.73212C23.4796 7.73212 22.2461 8.95621 22.2461 10.4662C22.2461 11.9762 23.4796 13.2003 25.0012 13.2003Z" fill="#00063A"/>
</svg>
